<svg width="54" height="71" viewBox="0 0 54 71" fill="none" xmlns="http://www.w3.org/2000/svg">
<path d="M51 68C44.0646 55.486 39.118 50.1255 30.9236 45.8637C28.4657 44.5854 25.5205 44.5605 23.1033 45.9143C14.6252 50.6627 10.2531 57.4111 3 68" stroke="white" stroke-width="5" stroke-linecap="round" stroke-linejoin="round"/>
<path d="M26.5 0C39.2025 0 49.5 10.2975 49.5 23C49.5 35.7025 39.2025 46 26.5 46C13.7975 46 3.5 35.7025 3.5 23C3.5 10.2975 13.7975 0 26.5 0ZM26.5 5C16.5589 5 8.5 12.835 8.5 22.5C8.5 32.165 16.5589 40 26.5 40C36.4411 40 44.5 32.165 44.5 22.5C44.5 12.835 36.4411 5 26.5 5Z" fill="white"/>
</svg>
